<svg width="28" height="28" viewBox="0 0 28 28" fill="none" xmlns="http://www.w3.org/2000/svg">
<path d="M18.9814 2.33388C19.3802 2.33388 19.7034 2.66638 19.7034 3.07763V3.32613H23.7957C24.1639 3.32613 24.4677 3.61051 24.5127 3.97801L24.5177 4.07076V24.922C24.5177 25.3333 24.1953 25.6666 23.7965 25.6666H4.53847C4.13968 25.6666 3.81641 25.3341 3.81641 24.9229V4.07076C3.81641 3.65951 4.13968 3.32526 4.53847 3.32526H8.62986V3.07763C8.62986 2.69788 8.90562 2.38463 9.26198 2.33826L9.35277 2.33301L18.9814 2.33388ZM19.7034 9.03638C19.7034 9.44763 19.381 9.78013 18.9822 9.78013H16.0931C15.6943 9.78013 15.3711 9.44763 15.3711 9.03638C15.3711 8.34951 14.8323 7.79388 14.1679 7.79388C13.5027 7.79388 12.9639 8.34951 12.9639 9.03638C12.9639 9.44763 12.6415 9.78013 12.2427 9.78013H9.35362C8.95483 9.78013 8.63156 9.44763 8.63156 9.03638L8.63071 4.81538H5.26222V24.1774H23.0736V4.81626L19.7034 4.81538V9.03638ZM16.5454 14.4666C16.8271 14.1761 17.2844 14.1761 17.567 14.4666C17.8486 14.7571 17.8486 15.2288 17.567 15.5201L13.7148 19.4918C13.4331 19.7823 12.9766 19.7823 12.6941 19.4918L10.768 17.5055C10.4863 17.215 10.4863 16.7434 10.768 16.452C11.0506 16.1615 11.5079 16.1615 11.7896 16.452L13.2049 17.9115L16.5454 14.4666ZM18.2593 3.82313H10.0757V8.29088H11.6199C11.9339 7.14463 12.9554 6.30463 14.1679 6.30463C15.3796 6.30463 16.4011 7.14463 16.7159 8.29088H18.2602V3.82401L18.2593 3.82313Z" fill="black"/>
</svg>
