<svg width="35" height="22" viewBox="0 0 35 22" fill="none" xmlns="http://www.w3.org/2000/svg">
<g clip-path="url(#clip0_785:592)">
<path d="M0.65625 2.76611C0.65625 1.2503 1.92743 0.0214844 3.49552 0.0214844H31.8882C33.4563 0.0214844 34.7275 1.2503 34.7275 2.76611V19.2339C34.7275 20.7497 33.4563 21.9785 31.8882 21.9785H3.49552C1.92743 21.9785 0.65625 20.7497 0.65625 19.2339V2.76611Z" fill="#FCE0CF"/>
<path d="M20.9439 10.9859C20.9465 10.396 20.7177 9.8052 20.2573 9.36002C19.7958 8.91392 19.1831 8.69292 18.5716 8.69647C18.5687 8.69647 18.5659 8.69629 18.5628 8.69629C17.2349 8.69629 16.1816 9.71423 16.1816 10.9982C16.1816 12.2695 17.2479 13.3 18.5628 13.3C19.8911 13.3 20.9443 12.2818 20.9443 10.9982C20.9443 10.994 20.9439 10.99 20.9439 10.9859Z" fill="#F26E21"/>
<path d="M15.7381 11.9723C15.3822 12.3168 15.0537 12.4513 14.6999 12.4586C13.8379 12.4511 13.2042 11.834 13.2042 10.9543C13.2042 10.5114 13.3776 10.1485 13.6524 9.83839C13.9101 9.6019 14.2421 9.4491 14.6238 9.4491C15.0359 9.4491 15.3566 9.58188 15.7227 9.93603V8.91791C15.3567 8.74093 15.0358 8.65234 14.6238 8.65234C14.0417 8.69256 13.4928 8.91993 13.0718 9.27696C12.9505 9.3825 12.8342 9.49899 12.7356 9.63233C12.4281 10.0176 12.2422 10.4894 12.2422 10.9987C12.2422 12.2823 13.2958 13.2561 14.6238 13.2561C14.6302 13.2561 14.6366 13.2556 14.6429 13.2555C14.6518 13.2557 14.6606 13.2561 14.6695 13.2561C15.0358 13.2561 15.3566 13.1678 15.7687 12.9907L15.7381 11.9723C15.7226 11.9873 15.7534 12.0012 15.7381 12.0153V11.9723Z" fill="#2B2B2B"/>
<path d="M23.9491 9.2872L22.912 11.752L21.7213 8.83008H20.7598L22.6372 13.3012H23.1409L25.1101 8.83008H24.1486L23.9491 9.2872Z" fill="#2B2B2B"/>
<path d="M25.4785 10.7779V13.1686H27.9515H27.9971V12.46H27.2187H26.3944V11.6634V11.2651H27.9515V10.5123H26.3944V9.58276H27.9971V8.83008H25.4785V10.7779Z" fill="#2B2B2B"/>
<path d="M4.77858 8.83008H3.49609V13.1686H4.77851C5.46532 13.1686 5.96898 12.9913 6.38113 12.6814C6.88478 12.283 7.20548 11.6634 7.20548 10.9995C7.20555 9.71542 6.2437 8.83008 4.77858 8.83008ZM5.83174 12.1061C5.55696 12.3274 5.1906 12.46 4.64103 12.46H4.36624V9.5827H4.59517C5.14475 9.5827 5.51111 9.67122 5.78596 9.93672C6.10647 10.2022 6.28974 10.6008 6.28974 10.9994C6.33553 11.3978 6.15238 11.8402 5.83174 12.1061Z" fill="#2B2B2B"/>
<path d="M8.48727 8.8291H7.61719V13.1675H8.48727V8.8291Z" fill="#2B2B2B"/>
<path d="M10.6854 10.5124C10.136 10.3353 9.99845 10.2024 9.99845 9.98118C9.99845 9.71555 10.2732 9.49425 10.6396 9.49425C10.9144 9.49425 11.1433 9.58283 11.3723 9.84845L11.8304 9.273C11.4639 8.96299 11.0061 8.78613 10.5024 8.78613C9.72366 8.78613 9.08251 9.31739 9.08251 10.0254C9.08251 10.6453 9.35755 10.9109 10.1817 11.2208C10.5481 11.3534 10.6855 11.3978 10.7773 11.4864C10.9601 11.5747 11.0519 11.752 11.0519 11.9288C11.0519 12.283 10.7773 12.5487 10.3649 12.5487C9.95234 12.5487 9.5863 12.3274 9.40309 11.9732L8.85352 12.5045C9.26585 13.0799 9.76957 13.3455 10.4107 13.3455C11.3265 13.3455 11.9674 12.77 11.9674 11.9288C11.9675 11.1765 11.6929 10.8666 10.6854 10.5124Z" fill="#2B2B2B"/>
<path d="M30.4695 11.3533C31.1562 11.2207 31.5227 10.7779 31.5227 10.114C31.5227 9.31732 30.9273 8.83008 29.9199 8.83008H28.5918V13.1686H29.4619V11.4419H29.5994L30.8356 13.1686H31.889L30.4695 11.3533ZM29.7365 10.8221H29.4619V9.49418H29.7365C30.2861 9.49418 30.6068 9.71542 30.6068 10.1584C30.6068 10.6009 30.2862 10.8221 29.7365 10.8221Z" fill="#2B2B2B"/>
</g>
<defs>
<clipPath id="clip0_785:592">
<rect width="34.0712" height="21.957" fill="white" transform="translate(0.65625 0.0214844)"/>
</clipPath>
</defs>
</svg>
