<svg width="34" height="22" viewBox="0 0 34 22" fill="none" xmlns="http://www.w3.org/2000/svg">
<g clip-path="url(#clip0_785:586)">
<path d="M0.341797 2.76611C0.341797 1.2503 1.58473 0.0214844 3.11797 0.0214844H30.8797C32.413 0.0214844 33.6559 1.2503 33.6559 2.76611V19.2339C33.6559 20.7497 32.413 21.9785 30.8797 21.9785H3.11797C1.58473 21.9785 0.341797 20.7497 0.341797 19.2339V2.76611Z" fill="#CCEFFF"/>
<path d="M20.6423 17.4751H13.3555V4.52832H20.6423V17.4751Z" fill="#6C6BBD"/>
<path d="M13.8228 10.9995C13.8228 8.3732 15.0666 6.03375 17.0035 4.52611C15.5871 3.42366 13.7995 2.76564 11.8568 2.76564C7.25751 2.76564 3.5293 6.45201 3.5293 10.9995C3.5293 15.547 7.25751 19.2334 11.8568 19.2334C13.7995 19.2334 15.5871 18.5754 17.0035 17.4729C15.0666 15.9653 13.8228 13.6258 13.8228 10.9995Z" fill="#EB001B"/>
<path d="M30.4709 10.9995C30.4709 15.547 26.7426 19.2334 22.1434 19.2334C20.2006 19.2334 18.413 18.5754 16.9961 17.4729C18.9335 15.9653 20.1773 13.6258 20.1773 10.9995C20.1773 8.3732 18.9335 6.03375 16.9961 4.52611C18.413 3.42366 20.2006 2.76564 22.1434 2.76564C26.7426 2.76564 30.4709 6.45201 30.4709 10.9995Z" fill="#0099DF"/>
</g>
<defs>
<clipPath id="clip0_785:586">
<rect width="33.3141" height="21.957" fill="white" transform="translate(0.341797 0.0214844)"/>
</clipPath>
</defs>
</svg>
