<svg width="36" height="22" viewBox="0 0 36 22" fill="none" xmlns="http://www.w3.org/2000/svg">
<g clip-path="url(#clip0_785:577)">
<path d="M0.957031 2.76611C0.957031 1.2503 2.22822 0.0214844 3.7963 0.0214844H32.189C33.7571 0.0214844 35.0283 1.2503 35.0283 2.76611V19.2339C35.0283 20.7497 33.7571 21.9785 32.189 21.9785H3.7963C2.22821 21.9785 0.957031 20.7497 0.957031 19.2339V2.76611Z" fill="#CCDEFF"/>
<path d="M8.60292 7.92437C8.24704 7.68787 7.78265 7.56934 7.20975 7.56934H4.99178C4.81615 7.56934 4.71912 7.65424 4.70069 7.8239L3.7997 13.2911C3.79034 13.3448 3.80424 13.3939 3.84127 13.4385C3.87809 13.4833 3.9244 13.5055 3.97987 13.5055H5.03339C5.21817 13.5055 5.31973 13.4208 5.33838 13.2509L5.58786 11.777C5.59697 11.7056 5.62947 11.6475 5.68493 11.6028C5.74035 11.5581 5.80967 11.5289 5.89285 11.5156C5.97602 11.5023 6.05445 11.4956 6.12852 11.4956C6.20237 11.4956 6.29012 11.5001 6.39194 11.509C6.49351 11.5179 6.55825 11.5223 6.586 11.5223C7.38072 11.5223 8.00451 11.3058 8.45742 10.8724C8.91011 10.4392 9.13672 9.8385 9.13672 9.07003C9.13672 8.54297 8.95863 8.16111 8.60292 7.92424V7.92437ZM7.45936 9.566C7.41301 9.87872 7.29301 10.0841 7.09895 10.1824C6.90485 10.2808 6.62761 10.3298 6.26724 10.3298L5.80976 10.3432L6.04547 8.90931C6.06386 8.81113 6.1239 8.76198 6.22563 8.76198H6.4891C6.85858 8.76198 7.12675 8.81346 7.2931 8.91602C7.45936 9.01883 7.51483 9.23554 7.45936 9.566Z" fill="#003087"/>
<path d="M32.0096 7.56934H30.9839C30.8819 7.56934 30.8219 7.61849 30.8036 7.71683L29.9026 13.2913L29.8887 13.3181C29.8887 13.363 29.9071 13.4052 29.9442 13.4455C29.981 13.4856 30.0274 13.5057 30.0828 13.5057H30.9978C31.1731 13.5057 31.2702 13.421 31.289 13.2512L32.1899 7.77044V7.75713C32.1899 7.632 32.1296 7.5695 32.0096 7.5695V7.56934Z" fill="#009CDE"/>
<path d="M19.6169 9.72861C19.6169 9.68404 19.5983 9.64153 19.5616 9.60143C19.5245 9.56125 19.4829 9.54102 19.4368 9.54102H18.3694C18.2675 9.54102 18.1844 9.58591 18.1198 9.67499L16.6504 11.7655L16.0405 9.75548C15.9941 9.61265 15.8925 9.54102 15.7355 9.54102H14.6957C14.6494 9.54102 14.6078 9.56117 14.5711 9.60143C14.534 9.64153 14.5156 9.68413 14.5156 9.72861C14.5156 9.74659 14.6057 10.01 14.7859 10.5192C14.9661 11.0286 15.1601 11.578 15.3681 12.1677C15.5761 12.7572 15.6846 13.07 15.6939 13.1055C14.936 14.1062 14.5572 14.6422 14.5572 14.7135C14.5572 14.8297 14.6172 14.8877 14.7374 14.8877H15.8048C15.9064 14.8877 15.9896 14.8432 16.0544 14.7538L19.5893 9.82236C19.6077 9.80467 19.6169 9.77354 19.6169 9.72857V9.72861Z" fill="#003087"/>
<path d="M29.5569 9.53813H28.5034C28.3739 9.53813 28.2956 9.68558 28.2679 9.98045C28.0273 9.6232 27.5886 9.44434 26.9508 9.44434C26.2855 9.44434 25.7193 9.68558 25.2527 10.168C24.786 10.6504 24.5527 11.2179 24.5527 11.8699C24.5527 12.3971 24.7121 12.8169 25.0309 13.1295C25.3497 13.4424 25.7771 13.5985 26.3133 13.5985C26.5812 13.5985 26.8539 13.5448 27.1311 13.4377C27.4083 13.3305 27.6253 13.1877 27.7827 13.0089C27.7827 13.0179 27.7733 13.0579 27.755 13.1294C27.7363 13.201 27.7272 13.2548 27.7272 13.2902C27.7272 13.4333 27.7871 13.5046 27.9074 13.5046H28.864C29.0394 13.5046 29.1412 13.4199 29.1688 13.25L29.7372 9.75251C29.7463 9.69886 29.7325 9.64983 29.6956 9.6051C29.6585 9.56054 29.6124 9.53813 29.5569 9.53813ZM27.748 12.1781C27.5123 12.4015 27.2281 12.5131 26.8954 12.5131C26.6273 12.5131 26.4103 12.4417 26.2439 12.2987C26.0775 12.1561 25.9943 11.9595 25.9943 11.7091C25.9943 11.3788 26.1098 11.0994 26.341 10.8716C26.5717 10.6438 26.8584 10.5299 27.2004 10.5299C27.4589 10.5299 27.6738 10.6036 27.845 10.7509C28.0157 10.8984 28.1015 11.1016 28.1015 11.3608C28.1014 11.6823 27.9836 11.9549 27.748 12.1781Z" fill="#009CDE"/>
<path d="M13.8091 9.53813H12.7555C12.6259 9.53813 12.5475 9.68558 12.5198 9.98045C12.2703 9.6232 11.8313 9.44434 11.2028 9.44434C10.5375 9.44434 9.97133 9.68558 9.5047 10.168C9.03794 10.6504 8.80469 11.2179 8.80469 11.8699C8.80469 12.3971 8.96413 12.8169 9.28297 13.1295C9.60182 13.4424 10.0291 13.5985 10.5652 13.5985C10.8238 13.5985 11.092 13.5448 11.3692 13.4377C11.6464 13.3305 11.8682 13.1877 12.0346 13.0089C11.9975 13.116 11.9791 13.2099 11.9791 13.2902C11.9791 13.4333 12.0392 13.5046 12.1593 13.5046H13.1158C13.2913 13.5046 13.3931 13.4199 13.4208 13.25L13.9891 9.75251C13.9982 9.69886 13.9844 9.64983 13.9476 9.6051C13.9106 9.56054 13.8644 9.53813 13.8091 9.53813ZM12 12.1847C11.7643 12.4039 11.4754 12.5131 11.1337 12.5131C10.8655 12.5131 10.6506 12.4417 10.489 12.2987C10.3272 12.1561 10.2464 11.9595 10.2464 11.7091C10.2464 11.3788 10.3619 11.0994 10.593 10.8716C10.8239 10.6438 11.1104 10.5299 11.4525 10.5299C11.7111 10.5299 11.926 10.6036 12.0971 10.7509C12.2679 10.8984 12.3535 11.1016 12.3535 11.3608C12.3535 11.6913 12.2357 11.9661 12 12.1847Z" fill="#003087"/>
<path d="M24.351 7.92437C23.9952 7.68787 23.5309 7.56934 22.9579 7.56934H20.7538C20.5689 7.56934 20.4672 7.65424 20.4488 7.8239L19.5477 13.2911C19.5384 13.3448 19.5523 13.3939 19.5894 13.4385C19.626 13.4833 19.6724 13.5055 19.7279 13.5055H20.8646C20.9754 13.5055 21.0493 13.4475 21.0864 13.3313L21.3359 11.777C21.3451 11.7056 21.3775 11.6475 21.433 11.6028C21.4885 11.5581 21.5577 11.5289 21.641 11.5156C21.7241 11.5023 21.8025 11.4956 21.8766 11.4956C21.9505 11.4956 22.0382 11.5001 22.1399 11.509C22.2415 11.5179 22.3065 11.5223 22.334 11.5223C23.1289 11.5223 23.7525 11.3058 24.2055 10.8724C24.6583 10.4392 24.8847 9.8385 24.8847 9.07003C24.8847 8.54297 24.7067 8.16107 24.351 7.92424V7.92437ZM22.9302 10.1287C22.7269 10.2627 22.4218 10.3297 22.0153 10.3297L21.5717 10.3431L21.8073 8.90922C21.8256 8.81109 21.8857 8.76185 21.9875 8.76185H22.2369C22.4403 8.76185 22.602 8.77082 22.7223 8.78864C22.8422 8.80658 22.9579 8.86233 23.0688 8.95608C23.1798 9.04992 23.2351 9.18623 23.2351 9.36481C23.2351 9.74016 23.1334 9.99463 22.9302 10.1287Z" fill="#009CDE"/>
</g>
<defs>
<clipPath id="clip0_785:577">
<rect width="34.0712" height="21.957" fill="white" transform="translate(0.957031 0.0214844)"/>
</clipPath>
</defs>
</svg>
