<svg width="34" height="22" viewBox="0 0 34 22" fill="none" xmlns="http://www.w3.org/2000/svg">
<g clip-path="url(#clip0_785:569)">
<path d="M0.0273438 2.76611C0.0273438 1.2503 1.27028 0.0214844 2.80352 0.0214844H30.5653C32.0985 0.0214844 33.3414 1.2503 33.3414 2.76611V19.2339C33.3414 20.7497 32.0985 21.9785 30.5653 21.9785H2.80352C1.27028 21.9785 0.0273438 20.7497 0.0273438 19.2339V2.76611Z" fill="#D8E3F3"/>
<path d="M28.6977 6.9043H26.9525C26.4248 6.9043 26.019 7.0648 25.7754 7.58644L22.4473 15.09H24.8013C24.8013 15.09 25.2072 14.0869 25.2884 13.8461C25.5319 13.8461 27.8454 13.8461 28.1701 13.8461C28.2513 14.127 28.4542 15.0499 28.4542 15.0499H30.5647L28.6977 6.9043ZM25.9378 12.1608C26.1407 11.6793 26.8307 9.87363 26.8307 9.87363C26.8307 9.91376 27.0336 9.39212 27.1148 9.11123L27.2772 9.8335C27.2772 9.8335 27.7236 11.7997 27.8048 12.2009H25.9378V12.1608Z" fill="#3362AB"/>
<path d="M22.6096 12.4038C22.6096 14.0891 21.0673 15.2126 18.6727 15.2126C17.658 15.2126 16.6839 15.012 16.1562 14.7712L16.4809 12.9254L16.7651 13.0458C17.4956 13.3668 17.9827 13.4872 18.8756 13.4872C19.525 13.4872 20.215 13.2464 20.215 12.6847C20.215 12.3235 19.9309 12.0828 19.038 11.6815C18.1856 11.2803 17.0492 10.6382 17.0492 9.47458C17.0492 7.86954 18.6321 6.78613 20.8644 6.78613C21.7167 6.78613 22.4473 6.94664 22.8938 7.14727L22.5691 8.91282L22.4067 8.75231C22.0008 8.59181 21.4732 8.4313 20.702 8.4313C19.8497 8.47143 19.4438 8.83256 19.4438 9.15357C19.4438 9.51471 19.9309 9.79559 20.702 10.1567C22.0008 10.7586 22.6096 11.4408 22.6096 12.4038Z" fill="#3362AB"/>
<path d="M2.80273 6.9857L2.84332 6.8252H6.33383C6.82088 6.8252 7.18617 6.9857 7.30793 7.50734L8.07909 11.1187C7.30793 9.19264 5.52209 7.62772 2.80273 6.9857Z" fill="#F9B50B"/>
<path d="M12.9903 6.90634L9.45918 15.0519H7.06452L5.03516 8.2305C6.4963 9.1534 7.71392 10.5979 8.16038 11.6011L8.40391 12.4437L10.5956 6.86621H12.9903V6.90634Z" fill="#3362AB"/>
<path d="M13.9245 6.86621H16.1568L14.7362 15.0519H12.5039L13.9245 6.86621Z" fill="#3362AB"/>
</g>
<defs>
<clipPath id="clip0_785:569">
<rect width="33.3141" height="21.957" fill="white" transform="translate(0.0273438 0.0214844)"/>
</clipPath>
</defs>
</svg>
