<svg width="27" height="18" viewBox="0 0 27 18" fill="none" xmlns="http://www.w3.org/2000/svg">
<path d="M17.1436 15.4543H9.85677V2.50755H17.1436V15.4543Z" fill="#6C6BBD"/>
<path d="M10.3235 8.97851C10.3235 6.35219 11.5673 4.01274 13.5042 2.5051C12.0878 1.40265 10.3002 0.744625 8.35749 0.744625C3.75825 0.744625 0.0300293 4.431 0.0300293 8.97851C0.0300293 13.526 3.75825 17.2124 8.35749 17.2124C10.3002 17.2124 12.0878 16.5544 13.5042 15.4519C11.5673 13.9443 10.3235 11.6048 10.3235 8.97851Z" fill="#EB001B"/>
<path d="M26.9708 8.97851C26.9708 13.526 23.2426 17.2124 18.6434 17.2124C16.7006 17.2124 14.913 16.5544 13.4961 15.4519C15.4335 13.9443 16.6773 11.6048 16.6773 8.97851C16.6773 6.35219 15.4335 4.01274 13.4961 2.5051C14.913 1.40265 16.7006 0.744625 18.6434 0.744625C23.2426 0.744625 26.9708 4.431 26.9708 8.97851Z" fill="#0099DF"/>
</svg>
