<svg width="29" height="8" viewBox="0 0 29 8" fill="none" xmlns="http://www.w3.org/2000/svg">
<path d="M5.10295 0.902761C4.74708 0.666264 4.28268 0.547729 3.70978 0.547729H1.49181C1.31618 0.547729 1.21915 0.632637 1.20072 0.802289L0.299734 6.26948C0.29037 6.32318 0.304267 6.37229 0.3413 6.41693C0.378121 6.46166 0.424433 6.4839 0.479897 6.4839H1.53342C1.7182 6.4839 1.81976 6.3992 1.83841 6.22934L2.08789 4.75539C2.097 4.68396 2.1295 4.62588 2.18496 4.58115C2.24038 4.53651 2.3097 4.50731 2.39288 4.49395C2.47605 4.48068 2.55448 4.47397 2.62855 4.47397C2.7024 4.47397 2.79015 4.47851 2.89197 4.4874C2.99354 4.49629 3.05828 4.50067 3.08603 4.50067C3.88075 4.50067 4.50454 4.2842 4.95745 3.85078C5.41014 3.41759 5.63675 2.81689 5.63675 2.04842C5.63675 1.52136 5.45866 1.1395 5.10295 0.902638V0.902761ZM3.95939 2.54439C3.91304 2.85711 3.79304 3.06248 3.59898 3.16078C3.40488 3.25921 3.12764 3.30819 2.76727 3.30819L2.30979 3.32155L2.5455 1.8877C2.56389 1.78952 2.62393 1.74037 2.72566 1.74037H2.98913C3.35861 1.74037 3.62678 1.79186 3.79313 1.89442C3.95939 1.99722 4.01486 2.21394 3.95939 2.54439Z" fill="#003087"/>
<path d="M28.5091 0.547729H27.4834C27.3814 0.547729 27.3214 0.596881 27.3031 0.695223L26.4021 6.26973L26.3882 6.29651C26.3882 6.3414 26.4066 6.38363 26.4437 6.42385C26.4805 6.46399 26.5269 6.4841 26.5823 6.4841H27.4973C27.6726 6.4841 27.7697 6.3994 27.7885 6.22954L28.6894 0.748838V0.735526C28.6894 0.610397 28.6291 0.547894 28.5091 0.547894V0.547729Z" fill="#009CDE"/>
<path d="M16.1162 2.70654C16.1162 2.66198 16.0976 2.61946 16.0609 2.57937C16.0238 2.53919 15.9822 2.51895 15.9361 2.51895H14.8687C14.7668 2.51895 14.6837 2.56384 14.6191 2.65293L13.1497 4.74343L12.5398 2.73341C12.4934 2.59059 12.3918 2.51895 12.2348 2.51895H11.195C11.1487 2.51895 11.1071 2.5391 11.0704 2.57937C11.0333 2.61946 11.0149 2.66206 11.0149 2.70654C11.0149 2.72452 11.105 2.98797 11.2852 3.49717C11.4654 4.00654 11.6594 4.55596 11.8674 5.1456C12.0754 5.73512 12.1839 6.04797 12.1932 6.0834C11.4353 7.0841 11.0565 7.62009 11.0565 7.69144C11.0565 7.80768 11.1165 7.86568 11.2367 7.86568H12.3041C12.4057 7.86568 12.4889 7.82112 12.5537 7.73174L16.0886 2.8003C16.107 2.7826 16.1162 2.75147 16.1162 2.7065V2.70654Z" fill="#003087"/>
<path d="M26.0563 2.51691H25.0028C24.8732 2.51691 24.795 2.66436 24.7672 2.95922C24.5267 2.60198 24.088 2.42311 23.4502 2.42311C22.7848 2.42311 22.2187 2.66436 21.7521 3.14678C21.2854 3.62919 21.0521 4.19664 21.0521 4.84871C21.0521 5.37589 21.2115 5.79572 21.5303 6.10828C21.8491 6.42117 22.2765 6.5773 22.8127 6.5773C23.0806 6.5773 23.3532 6.5236 23.6305 6.4165C23.9077 6.30931 24.1247 6.16644 24.2821 5.9877C24.2821 5.99667 24.2726 6.03672 24.2544 6.10816C24.2357 6.17975 24.2266 6.23353 24.2266 6.26896C24.2266 6.41207 24.2865 6.48334 24.4068 6.48334H25.3634C25.5388 6.48334 25.6405 6.39864 25.6682 6.22878L26.2366 2.73129C26.2457 2.67763 26.2319 2.6286 26.195 2.58387C26.1578 2.53931 26.1117 2.51691 26.0563 2.51691ZM24.2473 5.15688C24.0117 5.38023 23.7275 5.49184 23.3948 5.49184C23.1267 5.49184 22.9097 5.42049 22.7433 5.27747C22.5768 5.13485 22.4937 4.93828 22.4937 4.68786C22.4937 4.35757 22.6092 4.07814 22.8403 3.85037C23.071 3.62256 23.3578 3.50869 23.6997 3.50869C23.9583 3.50869 24.1732 3.58237 24.3443 3.7297C24.5151 3.87716 24.6009 4.0804 24.6009 4.33954C24.6008 4.66111 24.483 4.93366 24.2473 5.15688Z" fill="#009CDE"/>
<path d="M10.3085 2.51691H9.25494C9.12537 2.51691 9.04698 2.66436 9.01923 2.95922C8.7697 2.60198 8.3307 2.42311 7.70229 2.42311C7.0369 2.42311 6.47078 2.66436 6.00414 3.14678C5.53738 3.62919 5.30413 4.19664 5.30413 4.84871C5.30413 5.37589 5.46357 5.79572 5.78242 6.10828C6.10126 6.42117 6.52857 6.5773 7.06465 6.5773C7.32328 6.5773 7.59145 6.5236 7.86864 6.4165C8.14587 6.30931 8.36769 6.16644 8.53404 5.9877C8.49696 6.0948 8.47857 6.18864 8.47857 6.26896C8.47857 6.41207 8.53861 6.48334 8.65878 6.48334H9.61526C9.79072 6.48334 9.89249 6.39864 9.92025 6.22878L10.4886 2.73129C10.4977 2.67763 10.4839 2.6286 10.447 2.58387C10.41 2.53931 10.3639 2.51691 10.3085 2.51691ZM8.49946 5.16352C8.26375 5.38265 7.97482 5.49184 7.6331 5.49184C7.36493 5.49184 7.15007 5.42049 6.98847 5.27747C6.82665 5.13485 6.74585 4.93828 6.74585 4.68786C6.74585 4.35757 6.86131 4.07814 7.09244 3.85037C7.32332 3.62256 7.60984 3.50865 7.9519 3.50865C8.21053 3.50865 8.4254 3.58237 8.59653 3.7297C8.76737 3.87716 8.85296 4.0804 8.85296 4.33954C8.85292 4.67008 8.73513 4.94488 8.49946 5.16352Z" fill="#003087"/>
<path d="M20.8505 0.902761C20.4947 0.666264 20.0304 0.547729 19.4574 0.547729H17.2533C17.0684 0.547729 16.9667 0.632637 16.9483 0.802289L16.0472 6.26948C16.0379 6.32318 16.0518 6.37229 16.0889 6.41693C16.1255 6.46166 16.1719 6.4839 16.2274 6.4839H17.3641C17.4749 6.4839 17.5488 6.4259 17.5859 6.30974L17.8354 4.75539C17.8446 4.68396 17.877 4.62588 17.9325 4.58115C17.988 4.53651 18.0572 4.50731 18.1405 4.49395C18.2236 4.48068 18.302 4.47397 18.3761 4.47397C18.45 4.47397 18.5377 4.47851 18.6394 4.4874C18.741 4.49629 18.806 4.50067 18.8335 4.50067C19.6284 4.50067 20.252 4.2842 20.7049 3.85078C21.1578 3.41759 21.3842 2.81689 21.3842 2.04842C21.3842 1.52136 21.2062 1.13946 20.8505 0.902638V0.902761ZM19.4297 3.10713C19.2264 3.2411 18.9213 3.30807 18.5148 3.30807L18.0712 3.32151L18.3068 1.88762C18.3251 1.78948 18.3852 1.74025 18.487 1.74025H18.7364C18.9398 1.74025 19.1015 1.74922 19.2218 1.76703C19.3417 1.78497 19.4574 1.84072 19.5683 1.93447C19.6793 2.02831 19.7346 2.16462 19.7346 2.3432C19.7346 2.71855 19.6329 2.97303 19.4297 3.10713Z" fill="#009CDE"/>
</svg>
