<svg width="30" height="6" viewBox="0 0 30 6" fill="none" xmlns="http://www.w3.org/2000/svg">
<path d="M18.4436 2.964C18.4462 2.3741 18.2174 1.78335 17.7569 1.33817C17.2955 0.892069 16.6828 0.671072 16.0713 0.674622C16.0684 0.674622 16.0655 0.674438 16.0625 0.674438C14.7346 0.674438 13.6813 1.69238 13.6813 2.97637C13.6813 4.24769 14.7476 5.27812 16.0625 5.27812C17.3908 5.27812 18.4439 4.26 18.4439 2.97637C18.4439 2.97215 18.4436 2.96817 18.4436 2.964Z" fill="#F26E21"/>
<path d="M13.239 3.95072C12.8831 4.29513 12.5546 4.42969 12.2008 4.43697C11.3388 4.42951 10.705 3.81242 10.705 2.93266C10.705 2.4898 10.8785 2.12684 11.1533 1.81677C11.411 1.58028 11.7429 1.42748 12.1247 1.42748C12.5368 1.42748 12.8575 1.56026 13.2236 1.91441V0.896287C12.8575 0.719305 12.5367 0.630722 12.1247 0.630722C11.5426 0.670943 10.9937 0.898308 10.5727 1.25533C10.4513 1.36087 10.3351 1.47737 10.2365 1.61071C9.92894 1.99601 9.74307 2.46782 9.74307 2.9771C9.74307 4.26067 10.7967 5.23453 12.1246 5.23453C12.1311 5.23453 12.1375 5.23398 12.1438 5.23391C12.1527 5.23404 12.1615 5.23453 12.1704 5.23453C12.5367 5.23453 12.8575 5.14619 13.2696 4.96908L13.239 3.95072C13.2235 3.96565 13.2543 3.97955 13.239 3.99369V3.95072Z" fill="#2B2B2B"/>
<path d="M21.4499 1.26513L20.4129 3.72991L19.2221 0.808014H18.2606L20.1381 5.2791H20.6418L22.611 0.808014H21.6494L21.4499 1.26513Z" fill="#2B2B2B"/>
<path d="M22.978 2.75586V5.1465H25.451H25.4966V4.43796H24.7182H23.8939V3.64132V3.24304H25.451V2.49023H23.8939V1.56069H25.4966V0.808014H22.978V2.75586Z" fill="#2B2B2B"/>
<path d="M2.27879 0.808899H0.996307V5.14738H2.27873C2.96553 5.14738 3.46919 4.97016 3.88134 4.66027C4.385 4.26186 4.7057 3.64227 4.7057 2.97836C4.70576 1.69424 3.74391 0.808899 2.27879 0.808899ZM3.33196 4.08494C3.05717 4.30618 2.69081 4.43884 2.14124 4.43884H1.86645V1.56152H2.09539C2.64496 1.56152 3.01132 1.65004 3.28617 1.91554C3.60668 2.18099 3.78995 2.57964 3.78995 2.97817C3.83574 3.37658 3.65259 3.81907 3.33196 4.08494Z" fill="#2B2B2B"/>
<path d="M5.98817 0.807816H5.11809V5.14618H5.98817V0.807816Z" fill="#2B2B2B"/>
<path d="M8.18636 2.49075C7.63691 2.3137 7.49936 2.1808 7.49936 1.95955C7.49936 1.69393 7.77415 1.47262 8.14051 1.47262C8.41529 1.47262 8.64423 1.56121 8.87323 1.82683L9.33129 1.25138C8.9648 0.941371 8.50706 0.764511 8.00327 0.764511C7.22458 0.764511 6.58343 1.29576 6.58343 2.00382C6.58343 2.62371 6.85847 2.88928 7.68264 3.19916C8.049 3.33176 8.18642 3.37621 8.27819 3.46473C8.46102 3.55313 8.55278 3.73036 8.55278 3.90722C8.55278 4.26143 8.27819 4.52711 7.86579 4.52711C7.45326 4.52711 7.08722 4.30581 6.904 3.9516L6.35443 4.48285C6.76677 5.0583 7.27049 5.32387 7.91164 5.32387C8.82744 5.32387 9.46827 4.74842 9.46827 3.90722C9.4684 3.15484 9.19387 2.84495 8.18636 2.49075Z" fill="#2B2B2B"/>
<path d="M27.97 3.33125C28.6567 3.19865 29.0231 2.7558 29.0231 2.09195C29.0231 1.29525 28.4277 0.808014 27.4204 0.808014H26.0923V5.1465H26.9624V3.41983H27.0999L28.336 5.1465H29.3894L27.97 3.33125ZM27.237 2.8H26.9624V1.47211H27.237C27.7866 1.47211 28.1073 1.69335 28.1073 2.13633C28.1073 2.57882 27.7866 2.8 27.237 2.8Z" fill="#2B2B2B"/>
</svg>
