<svg width="34" height="12" viewBox="0 0 34 12" fill="none" xmlns="http://www.w3.org/2000/svg">
<path d="M24.8132 1.77289L24.1686 3.17772H25.4613L24.8132 1.77289ZM17.375 2.64344C17.4965 2.58643 17.5681 2.46242 17.5681 2.30842C17.5681 2.15751 17.4929 2.04821 17.3714 1.99685C17.2608 1.93992 17.0905 1.93334 16.9273 1.93334H15.7741V2.71609H16.9118C17.094 2.71613 17.2463 2.71372 17.375 2.64344ZM2.59819 1.77289L1.9609 3.17772H3.23933L2.59819 1.77289ZM32.2697 10.7727H30.4612V10.0168H32.2624C32.441 10.0168 32.5661 9.99578 32.6414 9.9295C32.7126 9.87044 32.7528 9.78697 32.7521 9.69969C32.7521 9.59697 32.7067 9.51542 32.6376 9.46662C32.5698 9.41282 32.4707 9.38832 32.3076 9.38832C31.4283 9.36146 30.3312 9.41274 30.3312 8.29734C30.3312 7.78615 30.6922 7.24801 31.675 7.24801H33.5405V6.5467H31.8073C31.2842 6.5467 30.9042 6.65936 30.6351 6.83461V6.5467H28.0715C27.6616 6.5467 27.1804 6.63807 26.9529 6.83461V6.5467H22.3746V6.83461C22.0104 6.59818 21.3955 6.5467 21.1119 6.5467H18.0921V6.83461C17.8039 6.58354 17.1628 6.5467 16.7722 6.5467H13.3926L12.6194 7.29945L11.895 6.5467H6.84656V11.4654H11.7998L12.5966 10.7005L13.3472 11.4654L16.4004 11.4678V10.3107H16.7007C17.1057 10.3166 17.5835 10.3018 18.0051 10.1379V11.4652H20.5235V10.1832H20.645C20.7999 10.1832 20.8153 10.189 20.8153 10.3284V11.4649H28.4657C28.9515 11.4649 29.4592 11.3532 29.7403 11.1501V11.4649H32.167C32.6719 11.4649 33.1651 11.4013 33.5404 11.2383V10.322C33.313 10.6212 32.8695 10.7729 32.2696 10.7729L32.2697 10.7727ZM16.7408 9.61128H15.5722V10.7936H13.7519L12.5987 9.62675L11.4003 10.7936H7.69066V7.26878H11.4574L12.6096 8.42419L13.8008 7.26878H16.7933C17.5365 7.26878 18.3716 7.45389 18.3716 8.43001C18.3716 9.40917 17.5594 9.61128 16.7408 9.61128ZM22.3599 9.45147C22.4921 9.62351 22.5112 9.78412 22.5151 10.0948V10.7936H21.5747V10.3526C21.5747 10.1406 21.5975 9.82658 21.4234 9.66268C21.2867 9.53646 21.078 9.50631 20.7362 9.50631H19.7354V10.7936H18.7944V7.26882H20.9565C21.4308 7.26882 21.776 7.28778 22.0834 7.43513C22.379 7.59574 22.565 7.81577 22.565 8.21787C22.5649 8.78042 22.1477 9.06741 21.9012 9.15562C22.1095 9.22478 22.2799 9.34879 22.3599 9.45147ZM26.2284 7.99776H24.0354V8.63853H26.1748V9.35773H24.0354V10.059L26.2284 10.0622V10.7936H23.1027V7.26878H26.2284V7.99776ZM28.635 10.7935H26.811V10.0377H28.6277C28.8054 10.0377 28.9313 10.0165 29.0103 9.95035C29.0746 9.89586 29.1209 9.8166 29.1209 9.72061C29.1209 9.61781 29.0708 9.53626 29.0066 9.48735C28.935 9.43363 28.8361 9.40929 28.6731 9.40929C27.7973 9.38227 26.7004 9.43355 26.7004 8.31823C26.7004 7.80695 27.0576 7.26882 28.0394 7.26882H29.917V8.01893H28.199C28.0287 8.01893 27.918 8.02478 27.8238 8.08276C27.7211 8.13985 27.6831 8.22449 27.6831 8.33623C27.6831 8.46918 27.7702 8.55971 27.888 8.5988C27.9868 8.62971 28.0929 8.63873 28.2524 8.63873L28.7566 8.65112C29.2649 8.66207 29.614 8.74133 29.8261 8.9345C30.0083 9.10418 30.1063 9.31852 30.1063 9.68124C30.1062 10.4395 29.5794 10.7935 28.635 10.7935ZM21.3715 8.05461C21.2583 7.99415 21.0913 7.99094 20.9247 7.99094H19.7714V8.78255H20.9093C21.0914 8.78255 21.2463 8.77673 21.3715 8.7099C21.4929 8.6439 21.5655 8.52234 21.5655 8.37159C21.5655 8.22084 21.4929 8.1117 21.3715 8.05461ZM31.8353 7.99086C31.665 7.99086 31.5517 7.99668 31.4563 8.05453C31.3575 8.1117 31.3196 8.19634 31.3196 8.30816C31.3196 8.44103 31.403 8.53156 31.5243 8.57073C31.6232 8.60165 31.7292 8.61067 31.8852 8.61067L32.3929 8.62282C32.905 8.63424 33.247 8.71351 33.4555 8.90668C33.4935 8.93346 33.5163 8.96361 33.5424 8.99384V7.99094H31.8354L31.8353 7.99086ZM16.7732 7.99086H15.5521V8.8886H16.7623C17.1221 8.8886 17.3459 8.72798 17.3461 8.42307C17.3459 8.11483 17.1113 7.99086 16.7732 7.99086ZM8.62343 7.99086V8.63172H10.6794V9.35091H8.62343V10.0521H10.926L11.9957 9.0181L10.9714 7.99086H8.62343ZM14.6359 10.4558V7.6299L13.1981 9.0201L14.6359 10.4558ZM8.70202 4.79658V5.40391H16.5263L16.5227 4.11908H16.6741C16.7801 4.12241 16.811 4.13119 16.811 4.28863V5.40395H20.8578V5.10482C21.1842 5.26214 21.6918 5.40395 22.3599 5.40395H24.0623L24.4267 4.62125H25.2345L25.5908 5.40395H28.8715V4.66046L29.3682 5.40391H31.9973V0.489258H29.3955V1.06969L29.0312 0.489258H26.3614V1.06969L26.0269 0.489258H22.4206C21.8169 0.489258 21.2864 0.565034 20.8577 0.776247V0.489258H18.369V0.776247C18.0962 0.558539 17.7246 0.489258 17.3114 0.489258H8.21947L7.60947 1.7587L6.98298 0.489258H4.11931V1.06969L3.80466 0.489258H1.36243L0.228314 2.82606V4.69526L1.90533 1.17129H3.29682L4.88953 4.50774V1.17129H6.41812L7.64372 3.56186L8.76968 1.17129H10.3289V4.69526H9.369L9.3655 1.93535L8.00745 4.69526H7.18517L5.82367 1.9329V4.69526H3.91874L3.5589 3.90923H1.60896L1.2454 4.69526H0.228271V5.40419H1.82849L2.18928 4.62145H2.99712L3.35696 5.40419H6.50534V4.80572L6.78634 5.40668H8.42073L8.70177 4.7967L8.70202 4.79658ZM21.0315 1.58204C21.3341 1.30079 21.8083 1.17109 22.4537 1.17109H23.3603V1.92617H22.4727C22.1311 1.92617 21.9379 1.97187 21.7521 2.13497C21.5924 2.28332 21.4829 2.56381 21.4829 2.93315C21.4829 3.31071 21.5664 3.58291 21.7403 3.76072C21.8845 3.90017 22.1466 3.94247 22.3931 3.94247H22.8138L24.1337 1.17121H25.5369L27.1225 4.50434V1.17125H28.5485L30.1947 3.62549V1.17125H31.154V4.6951H29.8269L28.0517 2.05022V4.6951H26.1444L25.78 3.90907H23.8345L23.4809 4.6951H22.3849C21.9298 4.6951 21.3534 4.60457 21.027 4.30531C20.6978 4.00613 20.5267 3.60083 20.5267 2.96006C20.5266 2.43736 20.6288 1.9596 21.0315 1.58204ZM19.1052 1.17113H20.0607V4.6951H19.1052V1.17113ZM14.7969 1.17113H16.9509C17.4294 1.17113 17.7822 1.18255 18.085 1.33992C18.3813 1.49733 18.5589 1.72714 18.5589 2.12014C18.5589 2.68205 18.1419 2.97229 17.8991 3.05949C18.1039 3.12965 18.2791 3.25358 18.3625 3.35622C18.4947 3.53151 18.5175 3.68807 18.5175 4.00277V4.69506H17.5729L17.5694 4.25066C17.5694 4.03857 17.5919 3.73362 17.4215 3.56418C17.2847 3.4403 17.0761 3.41331 16.7389 3.41331H15.7335V4.6951H14.797L14.7969 1.17113ZM11.0215 1.17113H14.1501V1.90496H11.9581V2.54016H14.0974V3.26252H11.9581V3.96628H14.1501V4.69506H11.0215V1.17113Z" fill="#2557D6"/>
</svg>
