<svg width="29" height="10" viewBox="0 0 29 10" fill="none" xmlns="http://www.w3.org/2000/svg">
<path d="M26.2 0.882721H24.4547C23.9271 0.882721 23.5212 1.04323 23.2777 1.56486L19.9495 9.06845H22.3036C22.3036 9.06845 22.7094 8.0653 22.7906 7.82454C23.0341 7.82454 25.3476 7.82454 25.6723 7.82454C25.7535 8.10542 25.9564 9.02832 25.9564 9.02832H28.067L26.2 0.882721ZM23.44 6.13924C23.643 5.65773 24.3329 3.85205 24.3329 3.85205C24.3329 3.89218 24.5359 3.37054 24.6171 3.08966L24.7794 3.81193C24.7794 3.81193 25.2259 5.77811 25.307 6.17937H23.44V6.13924Z" fill="#3362AB"/>
<path d="M20.1116 6.38198C20.1116 8.06727 18.5693 9.19081 16.1746 9.19081C15.1599 9.19081 14.1858 8.99017 13.6582 8.74942L13.9829 6.90362L14.267 7.02399C14.9976 7.345 15.4846 7.46538 16.3775 7.46538C17.0269 7.46538 17.7169 7.22463 17.7169 6.66286C17.7169 6.30172 17.4328 6.06097 16.5399 5.65971C15.6876 5.25845 14.5511 4.61643 14.5511 3.45277C14.5511 1.84773 16.134 0.76432 18.3663 0.76432C19.2187 0.76432 19.9492 0.924825 20.3957 1.12546L20.071 2.891L19.9086 2.7305C19.5028 2.57 18.9751 2.40949 18.204 2.40949C17.3516 2.44962 16.9458 2.81075 16.9458 3.13176C16.9458 3.4929 17.4328 3.77378 18.204 4.13491C19.5028 4.73681 20.1116 5.41895 20.1116 6.38198Z" fill="#3362AB"/>
<path d="M0.304962 0.964315L0.345549 0.80381H3.83606C4.32311 0.80381 4.68839 0.964315 4.81016 1.48595L5.58132 5.09731C4.81016 3.17125 3.02431 1.60633 0.304962 0.964315Z" fill="#F9B50B"/>
<path d="M10.4924 0.884357L6.96134 9.02996H4.56669L2.53732 2.20852C3.99847 3.13142 5.21609 4.57596 5.66255 5.57911L5.90607 6.42176L8.09779 0.844231H10.4924V0.884357Z" fill="#3362AB"/>
<path d="M11.426 0.844231H13.6583L12.2377 9.02996H10.0054L11.426 0.844231Z" fill="#3362AB"/>
</svg>
